# Blender v2.75 (sub 0) OBJ File: 'tortinhaTutorial.blend'
# www.blender.org
mtllib tortinhaTutorial_low.mtl
o TortaLow_Cube.002
v 0.345609 0.252016 -0.834377
v 0.260409 -0.192319 -0.628687
v 0.195088 0.252016 -0.980783
v 0.146995 -0.192319 -0.739001
v -0.000002 0.252016 -0.903124
v -0.000002 -0.192319 -0.680486
v 0.418609 -0.192319 -0.626494
v 0.555568 0.252016 -0.831468
v 0.481175 -0.192319 -0.481175
v 0.638604 0.252016 -0.638604
v 0.626494 -0.192319 -0.418609
v 0.831468 0.252016 -0.555568
v 0.628687 -0.192319 -0.260409
v 0.834377 0.252016 -0.345609
v 0.739001 -0.192319 -0.146995
v 0.980783 0.252016 -0.195088
v 0.680485 -0.192319 0.000002
v 0.903124 0.252016 0.000002
v 0.739001 -0.192319 0.146999
v 0.980783 0.252016 0.195092
v 0.628687 -0.192319 0.260413
v 0.834377 0.252016 0.345613
v 0.626494 -0.192319 0.418613
v 0.831468 0.252016 0.555572
v 0.481175 -0.192319 0.481179
v 0.638604 0.252016 0.638608
v 0.418609 -0.192319 0.626498
v 0.555568 0.252016 0.831471
v 0.260409 -0.192319 0.628690
v 0.345609 0.252016 0.834381
v 0.146995 -0.192319 0.739004
v 0.195088 0.252016 0.980787
v -0.000002 -0.192319 0.680489
v -0.000002 0.252016 0.903127
v -0.146999 -0.192319 0.739004
v -0.195093 0.252016 0.980787
v -0.260413 -0.192319 0.628690
v -0.345613 0.252016 0.834381
v -0.418614 -0.192319 0.626498
v -0.555573 0.252016 0.831471
v -0.481179 -0.192319 0.481179
v -0.638608 0.252016 0.638608
v -0.626498 -0.192319 0.418613
v -0.831472 0.252016 0.555572
v -0.628690 -0.192319 0.260413
v -0.834381 0.252016 0.345612
v -0.739005 -0.192319 0.146998
v -0.980787 0.252016 0.195091
v -0.680489 -0.192319 0.000001
v -0.903127 0.252016 0.000001
v -0.739004 -0.192319 -0.146996
v -0.980787 0.252016 -0.195089
v -0.628690 -0.192319 -0.260410
v -0.834381 0.252016 -0.345610
v -0.626498 -0.192319 -0.418610
v -0.831471 0.252016 -0.555569
v -0.481178 -0.192319 -0.481176
v -0.638607 0.252016 -0.638605
v -0.418612 -0.192319 -0.626495
v -0.555571 0.252016 -0.831469
v -0.260412 -0.192319 -0.628687
v -0.345612 0.252016 -0.834378
v -0.146998 -0.192319 -0.739001
v -0.195091 0.252016 -0.980783
v -0.000002 -0.252008 0.000002
v -0.298421 0.252016 -0.720450
v -0.479713 0.252016 -0.717938
v -0.551411 0.252016 -0.551409
v -0.717941 0.252016 -0.479711
v -0.720453 0.252016 -0.298420
v -0.846869 0.252016 -0.168451
v -0.779813 0.252016 0.000001
v -0.846869 0.252016 0.168453
v -0.720454 0.252016 0.298422
v -0.717942 0.252016 0.479713
v -0.551412 0.252016 0.551411
v -0.479714 0.252016 0.717941
v -0.298423 0.252016 0.720453
v -0.168455 0.252016 0.846869
v -0.000002 0.252016 0.779813
v 0.168450 0.252016 0.846869
v 0.298419 0.252016 0.720454
v 0.479710 0.252016 0.717941
v 0.551408 0.252016 0.551411
v 0.717937 0.252016 0.479714
v 0.720450 0.252016 0.298423
v 0.846865 0.252016 0.168454
v 0.779809 0.252016 0.000002
v 0.846865 0.252016 -0.168450
v 0.720450 0.252016 -0.298419
v 0.717937 0.252016 -0.479710
v 0.551408 0.252016 -0.551408
v 0.479710 0.252016 -0.717937
v -0.000002 0.252016 -0.779809
v 0.168450 0.252016 -0.846865
v 0.298419 0.252016 -0.720450
v -0.168453 0.252016 -0.846865
v -0.270414 0.188345 -0.652834
v -0.434690 0.188345 -0.650557
v -0.499659 0.188345 -0.499657
v -0.650560 0.188345 -0.434688
v -0.652837 0.188345 -0.270412
v -0.767388 0.188345 -0.152641
v -0.706625 0.188345 0.000001
v -0.767388 0.188345 0.152644
v -0.652837 0.188345 0.270414
v -0.650561 0.188345 0.434691
v -0.499660 0.188345 0.499660
v -0.434691 0.188345 0.650560
v -0.270415 0.188345 0.652837
v -0.152645 0.188345 0.767388
v -0.000002 0.188345 0.706625
v 0.152641 0.188345 0.767388
v 0.270411 0.188345 0.652837
v 0.434687 0.188345 0.650560
v 0.499656 0.188345 0.499660
v 0.650557 0.188345 0.434691
v 0.652833 0.188345 0.270415
v 0.767384 0.188345 0.152644
v 0.706622 0.188345 0.000002
v 0.767384 0.188345 -0.152641
v 0.652833 0.188345 -0.270411
v 0.650557 0.188345 -0.434687
v 0.499656 0.188345 -0.499656
v 0.434687 0.188345 -0.650557
v -0.000002 0.188345 -0.706622
v 0.152641 0.188345 -0.767384
v 0.270411 0.188345 -0.652833
v -0.152643 0.188345 -0.767384
v -0.000002 0.380641 0.000002
vt 0.249300 0.138665
vt 0.249300 0.069900
vt 0.286063 0.064484
vt 0.269336 0.148575
vt 0.229265 0.148575
vt 0.212538 0.064484
vt 0.317954 0.083556
vt 0.291638 0.147087
vt 0.353991 0.092620
vt 0.306357 0.163909
vt 0.376156 0.122445
vt 0.327531 0.171070
vt 0.405980 0.144610
vt 0.334691 0.192244
vt 0.415045 0.180647
vt 0.351514 0.206962
vt 0.434117 0.212538
vt 0.350026 0.229265
vt 0.428701 0.249300
vt 0.359935 0.249300
vt 0.434117 0.286063
vt 0.350026 0.269336
vt 0.415045 0.317954
vt 0.351514 0.291638
vt 0.405980 0.353990
vt 0.334691 0.306357
vt 0.376156 0.376156
vt 0.327531 0.327531
vt 0.353990 0.405980
vt 0.306357 0.334691
vt 0.317954 0.415045
vt 0.291638 0.351514
vt 0.286063 0.434117
vt 0.269336 0.350026
vt 0.249300 0.428701
vt 0.249300 0.359935
vt 0.212538 0.434117
vt 0.229265 0.350026
vt 0.180647 0.415045
vt 0.206962 0.351514
vt 0.144610 0.405980
vt 0.192244 0.334691
vt 0.122445 0.376156
vt 0.171070 0.327531
vt 0.092620 0.353990
vt 0.163909 0.306357
vt 0.083556 0.317954
vt 0.147087 0.291638
vt 0.064484 0.286062
vt 0.148575 0.269336
vt 0.069900 0.249300
vt 0.138665 0.249300
vt 0.064484 0.212538
vt 0.148575 0.229265
vt 0.083556 0.180647
vt 0.147087 0.206962
vt 0.092620 0.144610
vt 0.163909 0.192244
vt 0.122445 0.122445
vt 0.171070 0.171070
vt 0.144610 0.092620
vt 0.192244 0.163909
vt 0.206962 0.147087
vt 0.180647 0.083556
vt 0.106311 0.106311
vt 0.128314 0.068231
vt 0.128314 0.430369
vt 0.106311 0.392290
vt 0.436125 0.326686
vt 0.430369 0.370287
vt 0.291785 0.035715
vt 0.326686 0.062476
vt 0.035715 0.291785
vt 0.047083 0.249300
vt 0.326686 0.436125
vt 0.291785 0.462886
vt 0.430369 0.128314
vt 0.436125 0.171915
vt 0.068231 0.128314
vt 0.171915 0.436125
vt 0.462886 0.291785
vt 0.206816 0.035715
vt 0.249300 0.047083
vt 0.062476 0.326685
vt 0.370287 0.430369
vt 0.392290 0.106311
vt 0.062476 0.171915
vt 0.206815 0.462886
vt 0.451518 0.249300
vt 0.171915 0.062476
vt 0.068231 0.370287
vt 0.392290 0.392290
vt 0.370287 0.068231
vt 0.035715 0.206815
vt 0.249300 0.451518
vt 0.462886 0.206816
vt 0.249300 0.249300
vt 0.046025 0.113476
vt 0.086778 0.086778
vt 0.296996 0.009521
vt 0.337257 0.036955
vt 0.385125 0.452576
vt 0.337257 0.461646
vt 0.036955 0.161344
vt 0.201605 0.009521
vt 0.249300 0.019459
vt 0.411822 0.411823
vt 0.009521 0.201605
vt 0.452576 0.385125
vt 0.019459 0.249300
vt 0.009521 0.296995
vt 0.461646 0.337257
vt 0.036955 0.337257
vt 0.489080 0.296995
vt 0.046025 0.385124
vt 0.479141 0.249300
vt 0.086778 0.411822
vt 0.489080 0.201605
vt 0.113476 0.452576
vt 0.461646 0.161344
vt 0.161344 0.461646
vt 0.452576 0.113476
vt 0.201605 0.489080
vt 0.161344 0.036955
vt 0.411823 0.086778
vt 0.249300 0.479142
vt 0.113476 0.046025
vt 0.385125 0.046025
vt 0.296995 0.489080
vt 0.388954 0.851182
vt 0.387993 0.781882
vt 0.663392 0.667807
vt 0.846767 0.393368
vt 0.874174 0.457026
vt 0.339670 0.732200
vt 0.937831 0.484433
vt 0.365302 0.667808
vt 0.938792 0.553733
vt 0.339669 0.603415
vt 0.987115 0.603415
vt 0.387993 0.553733
vt 0.961483 0.667807
vt 0.388953 0.484433
vt 0.987115 0.732200
vt 0.452611 0.457026
vt 0.938792 0.781882
vt 0.480018 0.393368
vt 0.937831 0.851182
vt 0.549318 0.392408
vt 0.663392 0.965898
vt 0.599000 0.991530
vt 0.874174 0.878589
vt 0.599000 0.344084
vt 0.549319 0.943207
vt 0.846767 0.942246
vt 0.663392 0.369717
vt 0.480018 0.942247
vt 0.777466 0.943207
vt 0.727785 0.344084
vt 0.452611 0.878589
vt 0.727785 0.991530
vt 0.777466 0.392408
vn 0.125000 -0.767600 -0.628600
vn 0.178000 0.409600 -0.894700
vn 0.294300 0.639300 -0.710400
vn 0.180300 -0.882000 -0.435400
vn 0.000000 -0.882000 -0.471200
vn 0.000000 0.639300 -0.769000
vn 0.506800 0.409600 -0.758500
vn 0.356000 -0.767600 -0.532900
vn 0.543700 0.639300 -0.543700
vn 0.333200 -0.882000 -0.333200
vn 0.758500 0.409600 -0.506800
vn 0.532900 -0.767600 -0.356000
vn 0.710400 0.639300 -0.294300
vn 0.435400 -0.882000 -0.180300
vn 0.894700 0.409600 -0.178000
vn 0.628600 -0.767600 -0.125000
vn 0.769000 0.639300 0.000000
vn 0.471200 -0.882000 0.000000
vn 0.894700 0.409600 0.178000
vn 0.628600 -0.767600 0.125000
vn 0.710400 0.639300 0.294300
vn 0.435400 -0.882000 0.180300
vn 0.758500 0.409600 0.506800
vn 0.532900 -0.767600 0.356000
vn 0.543700 0.639300 0.543700
vn 0.333200 -0.882000 0.333200
vn 0.506800 0.409600 0.758500
vn 0.356000 -0.767600 0.532900
vn 0.294300 0.639300 0.710400
vn 0.180300 -0.882000 0.435400
vn 0.178000 0.409600 0.894700
vn 0.125000 -0.767600 0.628600
vn 0.000000 0.639300 0.769000
vn 0.000000 -0.882000 0.471200
vn -0.178000 0.409600 0.894700
vn -0.125000 -0.767600 0.628600
vn -0.294300 0.639300 0.710400
vn -0.180300 -0.882000 0.435400
vn -0.506800 0.409600 0.758500
vn -0.356000 -0.767600 0.532900
vn -0.543700 0.639300 0.543700
vn -0.333200 -0.882000 0.333200
vn -0.758500 0.409600 0.506800
vn -0.532900 -0.767600 0.356000
vn -0.710400 0.639300 0.294300
vn -0.435400 -0.882000 0.180300
vn -0.894700 0.409600 0.178000
vn -0.628600 -0.767600 0.125000
vn -0.769000 0.639300 0.000000
vn -0.471300 -0.882000 0.000000
vn -0.894700 0.409600 -0.178000
vn -0.628600 -0.767600 -0.125000
vn -0.710400 0.639300 -0.294300
vn -0.435400 -0.882000 -0.180300
vn -0.758500 0.409600 -0.506800
vn -0.532900 -0.767600 -0.356000
vn -0.543700 0.639300 -0.543700
vn -0.333200 -0.882000 -0.333200
vn -0.506800 0.409600 -0.758500
vn -0.356000 -0.767600 -0.532900
vn -0.294300 0.639300 -0.710400
vn -0.180300 -0.882000 -0.435400
vn -0.125000 -0.767600 -0.628600
vn -0.178000 0.409600 -0.894700
vn 0.118300 0.977100 0.177100
vn 0.160600 0.907600 0.387800
vn 0.296800 0.907600 -0.296800
vn 0.177100 0.977100 -0.118300
vn -0.177100 0.977100 -0.118300
vn -0.296800 0.907600 -0.296800
vn -0.160600 0.907600 0.387800
vn -0.118300 0.977100 0.177100
vn 0.419800 0.907600 0.000000
vn 0.208900 0.977100 0.041500
vn -0.041500 0.977100 -0.208900
vn 0.000000 0.907600 -0.419800
vn -0.387800 0.907600 0.160600
vn -0.208900 0.977100 0.041500
vn 0.296800 0.907600 0.296800
vn 0.118300 0.977100 -0.177100
vn -0.387800 0.907600 -0.160600
vn 0.000000 0.907600 0.419800
vn -0.041500 0.977100 0.208900
vn 0.208900 0.977100 -0.041500
vn -0.160600 0.907600 -0.387800
vn -0.177100 0.977100 0.118300
vn 0.177100 0.977100 0.118300
vn 0.160600 0.907600 -0.387800
vn -0.208900 0.977100 -0.041500
vn 0.041500 0.977100 0.208900
vn 0.387800 0.907600 -0.160600
vn -0.118300 0.977100 -0.177100
vn -0.296800 0.907600 0.296800
vn 0.387800 0.907600 0.160600
vn 0.041500 0.977100 -0.208900
vn -0.419800 0.907600 0.000000
vn 0.000000 -1.000000 0.000000
vn 0.078500 0.993800 0.078500
vn 0.194900 0.936400 0.291700
vn -0.042500 0.993800 0.102500
vn -0.194900 0.936400 0.291700
vn -0.042500 0.993800 -0.102500
vn -0.068400 0.936400 -0.344100
vn 0.291700 0.936400 0.194900
vn 0.000000 0.993800 0.111000
vn -0.068400 0.936400 0.344100
vn -0.194900 0.936400 -0.291700
vn 0.102500 0.993800 0.042500
vn -0.078500 0.993800 -0.078500
vn 0.344100 0.936400 0.068400
vn 0.111000 0.993800 0.000000
vn -0.291700 0.936400 -0.194900
vn 0.344100 0.936400 -0.068400
vn -0.102500 0.993800 -0.042500
vn 0.102500 0.993800 -0.042500
vn -0.344100 0.936400 -0.068400
vn 0.291700 0.936400 -0.194900
vn -0.111000 0.993800 0.000000
vn 0.078500 0.993800 -0.078500
vn -0.344100 0.936400 0.068400
vn 0.194900 0.936400 -0.291700
vn -0.102500 0.993800 0.042500
vn 0.042500 0.993800 -0.102500
vn 0.068400 0.936400 0.344100
vn -0.291700 0.936400 0.194900
vn 0.068400 0.936400 -0.344100
vn 0.042500 0.993800 0.102500
vn -0.078500 0.993800 0.078500
vn 0.000000 0.993800 -0.111000
vn 0.000000 1.000000 0.000000
usemtl Material
s 1
f 4/1/1 3/2/2 1/3/3 2/4/4
f 6/5/5 5/6/6 3/2/2 4/1/1
f 2/4/4 1/3/3 8/7/7 7/8/8
f 7/8/8 8/7/7 10/9/9 9/10/10
f 9/10/10 10/9/9 12/11/11 11/12/12
f 11/12/12 12/11/11 14/13/13 13/14/14
f 13/14/14 14/13/13 16/15/15 15/16/16
f 15/16/16 16/15/15 18/17/17 17/18/18
f 17/18/18 18/17/17 20/19/19 19/20/20
f 19/20/20 20/19/19 22/21/21 21/22/22
f 21/22/22 22/21/21 24/23/23 23/24/24
f 23/24/24 24/23/23 26/25/25 25/26/26
f 25/26/26 26/25/25 28/27/27 27/28/28
f 27/28/28 28/27/27 30/29/29 29/30/30
f 29/30/30 30/29/29 32/31/31 31/32/32
f 31/32/32 32/31/31 34/33/33 33/34/34
f 33/34/34 34/33/33 36/35/35 35/36/36
f 35/36/36 36/35/35 38/37/37 37/38/38
f 37/38/38 38/37/37 40/39/39 39/40/40
f 39/40/40 40/39/39 42/41/41 41/42/42
f 41/42/42 42/41/41 44/43/43 43/44/44
f 43/44/44 44/43/43 46/45/45 45/46/46
f 45/46/46 46/45/45 48/47/47 47/48/48
f 47/48/48 48/47/47 50/49/49 49/50/50
f 49/50/50 50/49/49 52/51/51 51/52/52
f 51/52/52 52/51/51 54/53/53 53/54/54
f 53/54/54 54/53/53 56/55/55 55/56/56
f 55/56/56 56/55/55 58/57/57 57/58/58
f 57/58/58 58/57/57 60/59/59 59/60/60
f 59/60/60 60/59/59 62/61/61 61/62/62
f 63/63/63 64/64/64 5/6/6 6/5/5
f 62/61/61 60/59/59 67/65/65 66/66/66
f 61/62/62 62/61/61 64/64/64 63/63/63
f 44/43/43 42/41/41 76/67/67 75/68/68
f 26/25/25 24/23/23 85/69/69 84/70/70
f 8/7/7 1/3/3 96/71/71 93/72/72
f 52/51/51 50/49/49 72/73/73 71/74/74
f 34/33/33 32/31/31 81/75/75 80/76/76
f 16/15/15 14/13/13 90/77/77 89/78/78
f 60/59/59 58/57/57 68/79/79 67/65/65
f 42/41/41 40/39/39 77/80/80 76/67/67
f 24/23/23 22/21/21 86/81/81 85/69/69
f 3/2/2 5/6/6 94/82/82 95/83/83
f 50/49/49 48/47/47 73/84/84 72/73/73
f 32/31/31 30/29/29 82/85/85 81/75/75
f 14/13/13 12/11/11 91/86/86 90/77/77
f 58/57/57 56/55/55 69/87/87 68/79/79
f 40/39/39 38/37/37 78/88/88 77/80/80
f 22/21/21 20/19/19 87/89/89 86/81/81
f 5/6/6 64/64/64 97/90/90 94/82/82
f 48/47/47 46/45/45 74/91/91 73/84/84
f 30/29/29 28/27/27 83/92/92 82/85/85
f 12/11/11 10/9/9 92/93/93 91/86/86
f 1/3/3 3/2/2 95/83/83 96/71/71
f 56/55/55 54/53/53 70/94/94 69/87/87
f 38/37/37 36/35/35 79/95/95 78/88/88
f 20/19/19 18/17/17 88/96/96 87/89/89
f 64/64/64 62/61/61 66/66/66 97/90/90
f 46/45/45 44/43/43 75/68/68 74/91/91
f 28/27/27 26/25/25 84/70/70 83/92/92
f 10/9/9 8/7/7 93/72/72 92/93/93
f 54/53/53 52/51/51 71/74/74 70/94/94
f 36/35/35 34/33/33 80/76/76 79/95/95
f 18/17/17 16/15/15 89/78/78 88/96/96
f 25/26/26 27/28/28 65/97/97
f 7/8/8 9/10/10 65/97/97
f 43/44/44 45/46/46 65/97/97
f 61/62/62 63/63/63 65/97/97
f 17/18/18 19/20/20 65/97/97
f 35/36/36 37/38/38 65/97/97
f 53/54/54 55/56/56 65/97/97
f 9/10/10 11/12/12 65/97/97
f 27/28/28 29/30/30 65/97/97
f 45/46/46 47/48/48 65/97/97
f 63/63/63 6/5/5 65/97/97
f 4/1/1 2/4/4 65/97/97
f 19/20/20 21/22/22 65/97/97
f 37/38/38 39/40/40 65/97/97
f 55/56/56 57/58/58 65/97/97
f 11/12/12 13/14/14 65/97/97
f 29/30/30 31/32/32 65/97/97
f 47/48/48 49/50/50 65/97/97
f 21/22/22 23/24/24 65/97/97
f 39/40/40 41/42/42 65/97/97
f 57/58/58 59/60/60 65/97/97
f 6/5/5 4/1/1 65/97/97
f 13/14/14 15/16/16 65/97/97
f 31/32/32 33/34/34 65/97/97
f 49/50/50 51/52/52 65/97/97
f 2/4/4 7/8/8 65/97/97
f 23/24/24 25/26/26 65/97/97
f 41/42/42 43/44/44 65/97/97
f 59/60/60 61/62/62 65/97/97
f 15/16/16 17/18/18 65/97/97
f 33/34/34 35/36/36 65/97/97
f 51/52/52 53/54/54 65/97/97
f 67/65/65 68/79/79 100/98/98 99/99/99
f 93/72/72 96/71/71 128/100/100 125/101/101
f 81/75/75 82/85/85 114/102/102 113/103/103
f 68/79/79 69/87/87 101/104/104 100/98/98
f 95/83/83 94/82/82 126/105/105 127/106/106
f 82/85/85 83/92/92 115/107/107 114/102/102
f 69/87/87 70/94/94 102/108/108 101/104/104
f 96/71/71 95/83/83 127/106/106 128/100/100
f 83/92/92 84/70/70 116/109/109 115/107/107
f 70/94/94 71/74/74 103/110/110 102/108/108
f 71/74/74 72/73/73 104/111/111 103/110/110
f 84/70/70 85/69/69 117/112/112 116/109/109
f 72/73/73 73/84/84 105/113/113 104/111/111
f 85/69/69 86/81/81 118/114/114 117/112/112
f 73/84/84 74/91/91 106/115/115 105/113/113
f 86/81/81 87/89/89 119/116/116 118/114/114
f 74/91/91 75/68/68 107/117/117 106/115/115
f 87/89/89 88/96/96 120/118/118 119/116/116
f 75/68/68 76/67/67 108/119/119 107/117/117
f 88/96/96 89/78/78 121/120/120 120/118/118
f 76/67/67 77/80/80 109/121/121 108/119/119
f 89/78/78 90/77/77 122/122/122 121/120/120
f 77/80/80 78/88/88 110/123/123 109/121/121
f 94/82/82 97/90/90 129/124/124 126/105/105
f 90/77/77 91/86/86 123/125/125 122/122/122
f 78/88/88 79/95/95 111/126/126 110/123/123
f 97/90/90 66/66/66 98/127/127 129/124/124
f 91/86/86 92/93/93 124/128/128 123/125/125
f 79/95/95 80/76/76 112/129/129 111/126/126
f 66/66/66 67/65/65 99/99/99 98/127/127
f 92/93/93 93/72/72 125/101/101 124/128/128
f 80/76/76 81/75/75 113/103/103 112/129/129
f 101/130/104 102/131/108 130/132/130
f 115/133/107 116/134/109 130/132/130
f 102/131/108 103/135/110 130/132/130
f 116/134/109 117/136/112 130/132/130
f 103/135/110 104/137/111 130/132/130
f 117/136/112 118/138/114 130/132/130
f 104/137/111 105/139/113 130/132/130
f 118/138/114 119/140/116 130/132/130
f 105/139/113 106/141/115 130/132/130
f 119/140/116 120/142/118 130/132/130
f 106/141/115 107/143/117 130/132/130
f 120/142/118 121/144/120 130/132/130
f 107/143/117 108/145/119 130/132/130
f 121/144/120 122/146/122 130/132/130
f 108/145/119 109/147/121 130/132/130
f 122/146/122 123/148/125 130/132/130
f 109/147/121 110/149/123 130/132/130
f 126/150/105 129/151/124 130/132/130
f 123/148/125 124/152/128 130/132/130
f 110/149/123 111/153/126 130/132/130
f 129/151/124 98/154/127 130/132/130
f 124/152/128 125/155/101 130/132/130
f 111/153/126 112/156/129 130/132/130
f 98/154/127 99/157/99 130/132/130
f 125/155/101 128/158/100 130/132/130
f 112/156/129 113/159/103 130/132/130
f 99/157/99 100/160/98 130/132/130
f 127/161/106 126/150/105 130/132/130
f 113/159/103 114/162/102 130/132/130
f 100/160/98 101/130/104 130/132/130
f 128/158/100 127/161/106 130/132/130
f 114/162/102 115/133/107 130/132/130
